{
	"asset":{
		"version":"2.0",
		"generator":"Created using the official Cinema 4D glTF Exporter 1.000x284978"
	},
	"scenes":[{
		"nodes":[0]
	}],
	"nodes":[{
		"scale":[1.0,
		1.0,
		1.0],
		"name":"capsule",
		"translation":[0.0,
		3.900504136393696e-16,
		6.370006561279297],
		"rotation":[-0.7071067690849304,
		0.0,
		0.0,
		-0.7071067690849304],
		"children":[1,
		4,
		6,
		10,
		12,
		16,
		19,
		20,
		21,
		23,
		25]
	},
	{
		"scale":[1.0,
		1.0,
		1.0],
		"name":"shoulder",
		"translation":[0.0,
		-8.4242360571357929e-16,
		13.757821083068848],
		"rotation":[0.7071067690849304,
		0.0,
		0.0,
		-0.7071067690849304],
		"children":[2]
	},
	{
		"scale":[1.0,
		1.0,
		1.0],
		"name":"Tube",
		"translation":[0.0,
		49.343318939208987,
		0.0],
		"rotation":[0.0,
		0.0,
		0.0,
		-1.0],
		"children":[3]
	},
	{
		"name":"Tube",
		"mesh":0
	},
	{
		"scale":[1.0,
		1.0,
		1.0],
		"name":"body",
		"translation":[0.0,
		0.0,
		0.0],
		"rotation":[0.7071067690849304,
		0.0,
		0.0,
		-0.7071067690849304],
		"children":[5]
	},
	{
		"name":"Capsule",
		"mesh":1
	},
	{
		"scale":[1.0,
		1.0,
		1.0],
		"name":"ears",
		"translation":[0.0,
		-1.3268226900070004e-15,
		21.668659210205079],
		"rotation":[0.7071067690849304,
		0.0,
		0.0,
		-0.7071067690849304],
		"children":[7]
	},
	{
		"scale":[1.0,
		1.0,
		1.0],
		"name":"ears",
		"translation":[0.0,
		0.0,
		1.0],
		"rotation":[0.0,
		0.0,
		0.0,
		-1.0],
		"children":[8]
	},
	{
		"name":"Boole",
		"children":[9]
	},
	{
		"scale":[1.0,
		1.0,
		1.0],
		"name":"Sphere.1",
		"translation":[0.0,
		177.53421020507813,
		103.22615814208985],
		"rotation":[0.0,
		0.0,
		0.0,
		-1.0],
		"mesh":2
	},
	{
		"scale":[1.0,
		1.0,
		1.0],
		"name":"nose",
		"translation":[-0.20828570425510407,
		-1.7463325262069703,
		2.880894422531128],
		"rotation":[0.7071067690849304,
		0.0,
		0.0,
		-0.7071067690849304],
		"children":[11]
	},
	{
		"scale":[1.0,
		1.0,
		1.0],
		"name":"Cylinder",
		"translation":[98.21283721923828,
		83.0096664428711,
		-0.20653025805950166],
		"rotation":[0.01701507531106472,
		0.011644024401903153,
		0.6966812014579773,
		-0.7170844674110413],
		"mesh":3
	},
	{
		"scale":[1.0,
		1.0,
		1.0],
		"name":"eye shadow",
		"translation":[87.01850891113281,
		5.991326616143315e-15,
		-97.84578704833985],
		"rotation":[0.7071067690849304,
		0.0,
		0.0,
		-0.7071067690849304],
		"children":[13]
	},
	{
		"scale":[1.0,
		1.0,
		1.0],
		"name":"Boole",
		"translation":[-94.94265747070313,
		-97.84578704833985,
		0.0],
		"rotation":[0.0,
		0.0,
		0.0,
		-1.0],
		"children":[14]
	},
	{
		"name":"Subdivision Surface",
		"children":[15]
	},
	{
		"scale":[1.0,
		1.0,
		1.0],
		"name":"Cylinder",
		"translation":[89.31013488769531,
		100.30536651611328,
		-42.459259033203128],
		"rotation":[0.08818221837282181,
		-0.09623400121927262,
		0.6035534143447876,
		-0.7865660786628723],
		"mesh":4
	},
	{
		"name":"legs",
		"children":[17]
	},
	{
		"scale":[1.0,
		1.0,
		1.0],
		"name":"legs",
		"translation":[0.0,
		0.0,
		0.0],
		"rotation":[0.7071067690849304,
		0.0,
		0.0,
		-0.7071067690849304],
		"children":[18]
	},
	{
		"scale":[1.0,
		1.0,
		1.0],
		"name":"Capsule",
		"translation":[0.0,
		-120.61913299560547,
		-87.09561920166016],
		"rotation":[-0.3754577338695526,
		0.5991923809051514,
		0.598717212677002,
		0.37621498107910159],
		"mesh":5
	},
	{
		"scale":[1.0,
		1.0,
		1.0],
		"name":"left eyeball",
		"translation":[85.73226165771485,
		35.06452178955078,
		-107.56018829345703],
		"rotation":[0.7071067690849304,
		0.0,
		0.0,
		-0.7071067690849304],
		"mesh":6
	},
	{
		"scale":[1.0,
		1.0,
		1.0],
		"name":"right eyeball",
		"translation":[85.73226165771485,
		-35.28812789916992,
		-107.52638244628906],
		"rotation":[0.7071067690849304,
		0.0,
		0.0,
		-0.7071067690849304],
		"mesh":7
	},
	{
		"name":"left hand",
		"children":[22]
	},
	{
		"scale":[1.0,
		1.0,
		1.0],
		"name":"left hand",
		"translation":[0.35028666257858279,
		104.22798919677735,
		-31.242177963256837],
		"rotation":[0.09497842192649842,
		0.3412588834762573,
		-0.9048848152160645,
		-0.23601892590522767],
		"mesh":8
	},
	{
		"name":"tail",
		"children":[24]
	},
	{
		"scale":[1.0,
		1.0,
		1.0],
		"name":"tail",
		"translation":[-90.73619079589844,
		-6.217248937900877e-15,
		96.56416320800781],
		"rotation":[0.7071067690849304,
		0.0,
		0.0,
		-0.7071067690849304],
		"mesh":9
	},
	{
		"name":"right hand",
		"children":[26]
	},
	{
		"scale":[1.0,
		1.0,
		1.0],
		"name":"right hand",
		"translation":[3.077427229063526e-14,
		-99.83200073242188,
		-31.242177963256837],
		"rotation":[0.32479602098464968,
		0.018555041402578355,
		-0.4149693250656128,
		-0.849684476852417],
		"mesh":10
	}],
	"meshes":[{
		"name":"Tube",
		"primitives":[{
			"attributes":{
				"POSITION":1,
				"NORMAL":2,
				"TEXCOORD_0":3
			},
			"indices":0,
			"material":0
		}]
	},
	{
		"name":"Capsule",
		"primitives":[{
			"attributes":{
				"POSITION":5,
				"NORMAL":6,
				"TEXCOORD_0":7
			},
			"indices":4,
			"material":1
		}]
	},
	{
		"name":"Sphere.1",
		"primitives":[{
			"attributes":{
				"POSITION":9,
				"NORMAL":10,
				"TEXCOORD_0":11
			},
			"indices":8,
			"material":0
		}]
	},
	{
		"name":"Cylinder",
		"primitives":[{
			"attributes":{
				"POSITION":13,
				"NORMAL":14,
				"TEXCOORD_0":15
			},
			"indices":12,
			"material":0
		}]
	},
	{
		"name":"Cylinder",
		"primitives":[{
			"attributes":{
				"POSITION":17,
				"NORMAL":18,
				"TEXCOORD_0":19
			},
			"indices":16,
			"material":0
		}]
	},
	{
		"name":"Capsule",
		"primitives":[{
			"attributes":{
				"POSITION":21,
				"NORMAL":22,
				"TEXCOORD_0":23
			},
			"indices":20,
			"material":0
		}]
	},
	{
		"name":"left eyeball",
		"primitives":[{
			"attributes":{
				"POSITION":25,
				"NORMAL":26,
				"TEXCOORD_0":27
			},
			"indices":24,
			"material":0
		}]
	},
	{
		"name":"right eyeball",
		"primitives":[{
			"attributes":{
				"POSITION":29,
				"NORMAL":30,
				"TEXCOORD_0":31
			},
			"indices":28,
			"material":0
		}]
	},
	{
		"name":"left hand",
		"primitives":[{
			"attributes":{
				"POSITION":33,
				"NORMAL":34,
				"TEXCOORD_0":35
			},
			"indices":32,
			"material":0
		}]
	},
	{
		"name":"tail",
		"primitives":[{
			"attributes":{
				"POSITION":37,
				"NORMAL":38,
				"TEXCOORD_0":39
			},
			"indices":36,
			"material":0
		}]
	},
	{
		"name":"right hand",
		"primitives":[{
			"attributes":{
				"POSITION":41,
				"NORMAL":42,
				"TEXCOORD_0":43
			},
			"indices":40,
			"material":0
		}]
	}],
	"accessors":[{
		"bufferView":0,
		"type":"SCALAR",
		"componentType":5123,
		"count":15360,
		"byteOffset":0,
		"min":[0],
		"max":[2849]
	},
	{
		"bufferView":1,
		"type":"VEC3",
		"componentType":5126,
		"count":2850,
		"byteOffset":0,
		"min":[-100.54988098144531,
		-35.278106689453128,
		-126.41950225830078],
		"max":[100.54987335205078,
		35.277809143066409,
		126.41950225830078]
	},
	{
		"bufferView":1,
		"type":"VEC3",
		"componentType":5126,
		"count":2850,
		"byteOffset":12,
		"min":[-1.0,
		-1.0,
		-1.0],
		"max":[1.0,
		1.0,
		1.0]
	},
	{
		"bufferView":1,
		"type":"VEC2",
		"componentType":5126,
		"count":2850,
		"byteOffset":24,
		"min":[0.0,
		0.0],
		"max":[1.0,
		1.0]
	},
	{
		"bufferView":2,
		"type":"SCALAR",
		"componentType":5123,
		"count":16896,
		"byteOffset":0,
		"min":[0],
		"max":[2984]
	},
	{
		"bufferView":3,
		"type":"VEC3",
		"componentType":5126,
		"count":2985,
		"byteOffset":0,
		"min":[-100.39933776855469,
		-172.23487854003907,
		-126.24372100830078],
		"max":[100.39933776855469,
		172.23487854003907,
		126.24372100830078]
	},
	{
		"bufferView":3,
		"type":"VEC3",
		"componentType":5126,
		"count":2985,
		"byteOffset":12,
		"min":[-1.0,
		-0.9999999403953552,
		-1.0],
		"max":[1.0,
		1.0,
		1.0]
	},
	{
		"bufferView":3,
		"type":"VEC2",
		"componentType":5126,
		"count":2985,
		"byteOffset":24,
		"min":[0.0,
		0.0],
		"max":[1.0,
		1.0]
	},
	{
		"bufferView":4,
		"type":"SCALAR",
		"componentType":5123,
		"count":21504,
		"byteOffset":0,
		"min":[0],
		"max":[3919]
	},
	{
		"bufferView":5,
		"type":"VEC3",
		"componentType":5126,
		"count":3920,
		"byteOffset":0,
		"min":[-24.685823440551759,
		-29.674480438232423,
		-235.9231719970703],
		"max":[22.313758850097658,
		29.674480438232423,
		29.470882415771486]
	},
	{
		"bufferView":5,
		"type":"VEC3",
		"componentType":5126,
		"count":3920,
		"byteOffset":12,
		"min":[-1.0,
		-0.9999927878379822,
		-1.0],
		"max":[0.998468279838562,
		1.0,
		1.0]
	},
	{
		"bufferView":5,
		"type":"VEC2",
		"componentType":5126,
		"count":3920,
		"byteOffset":24,
		"min":[0.0,
		0.0],
		"max":[1.0,
		1.0]
	},
	{
		"bufferView":6,
		"type":"SCALAR",
		"componentType":5123,
		"count":4608,
		"byteOffset":0,
		"min":[0],
		"max":[906]
	},
	{
		"bufferView":7,
		"type":"VEC3",
		"componentType":5126,
		"count":907,
		"byteOffset":0,
		"min":[-5.255856037139893,
		-1.9945950508117676,
		-8.004630088806153],
		"max":[3.0961756706237795,
		1.9945950508117676,
		8.004630088806153]
	},
	{
		"bufferView":7,
		"type":"VEC3",
		"componentType":5126,
		"count":907,
		"byteOffset":12,
		"min":[-1.0,
		-1.0,
		-0.9999988675117493],
		"max":[0.9999999403953552,
		1.0,
		0.9999988675117493]
	},
	{
		"bufferView":7,
		"type":"VEC2",
		"componentType":5126,
		"count":907,
		"byteOffset":24,
		"min":[0.0,
		0.0],
		"max":[1.0,
		1.0]
	},
	{
		"bufferView":8,
		"type":"SCALAR",
		"componentType":5123,
		"count":15540,
		"byteOffset":0,
		"min":[0],
		"max":[2949]
	},
	{
		"bufferView":9,
		"type":"VEC3",
		"componentType":5126,
		"count":2950,
		"byteOffset":0,
		"min":[-20.694290161132814,
		-37.80998992919922,
		-23.978431701660158],
		"max":[20.5666446685791,
		7.033683776855469,
		105.17538452148438]
	},
	{
		"bufferView":9,
		"type":"VEC3",
		"componentType":5126,
		"count":2950,
		"byteOffset":12,
		"min":[-0.9997164607048035,
		-1.0,
		-0.9999924898147583],
		"max":[1.0,
		1.0,
		0.9999220371246338]
	},
	{
		"bufferView":9,
		"type":"VEC2",
		"componentType":5126,
		"count":2950,
		"byteOffset":24,
		"min":[0.0,
		0.0],
		"max":[1.0,
		1.0]
	},
	{
		"bufferView":10,
		"type":"SCALAR",
		"componentType":5123,
		"count":35328,
		"byteOffset":0,
		"min":[0],
		"max":[6225]
	},
	{
		"bufferView":11,
		"type":"VEC3",
		"componentType":5126,
		"count":6226,
		"byteOffset":0,
		"min":[-232.26193237304688,
		-87.41079711914063,
		-35.11681365966797],
		"max":[35.11681365966797,
		113.43880462646485,
		35.11681365966797]
	},
	{
		"bufferView":11,
		"type":"VEC3",
		"componentType":5126,
		"count":6226,
		"byteOffset":12,
		"min":[-1.0,
		-0.9999999403953552,
		-1.0],
		"max":[1.0,
		0.9999999403953552,
		1.0]
	},
	{
		"bufferView":11,
		"type":"VEC2",
		"componentType":5126,
		"count":6226,
		"byteOffset":24,
		"min":[0.0,
		0.02594059333205223],
		"max":[1.0,
		0.9740593433380127]
	},
	{
		"bufferView":12,
		"type":"SCALAR",
		"componentType":5123,
		"count":672,
		"byteOffset":0,
		"min":[0],
		"max":[150]
	},
	{
		"bufferView":13,
		"type":"VEC3",
		"componentType":5126,
		"count":151,
		"byteOffset":0,
		"min":[-6.594888687133789,
		-6.594888687133789,
		-6.594888687133789],
		"max":[6.594888687133789,
		6.594888687133789,
		6.594888687133789]
	},
	{
		"bufferView":13,
		"type":"VEC3",
		"componentType":5126,
		"count":151,
		"byteOffset":12,
		"min":[-1.0,
		-1.0,
		-1.0],
		"max":[1.0,
		1.0,
		1.0]
	},
	{
		"bufferView":13,
		"type":"VEC2",
		"componentType":5126,
		"count":151,
		"byteOffset":24,
		"min":[0.0,
		0.0],
		"max":[1.0,
		1.0]
	},
	{
		"bufferView":14,
		"type":"SCALAR",
		"componentType":5123,
		"count":672,
		"byteOffset":0,
		"min":[0],
		"max":[150]
	},
	{
		"bufferView":15,
		"type":"VEC3",
		"componentType":5126,
		"count":151,
		"byteOffset":0,
		"min":[-6.594888687133789,
		-6.594888687133789,
		-6.594888687133789],
		"max":[6.594888687133789,
		6.594888687133789,
		6.594888687133789]
	},
	{
		"bufferView":15,
		"type":"VEC3",
		"componentType":5126,
		"count":151,
		"byteOffset":12,
		"min":[-1.0,
		-1.0,
		-1.0],
		"max":[1.0,
		1.0,
		1.0]
	},
	{
		"bufferView":15,
		"type":"VEC2",
		"componentType":5126,
		"count":151,
		"byteOffset":24,
		"min":[0.0,
		0.0],
		"max":[1.0,
		1.0]
	},
	{
		"bufferView":16,
		"type":"SCALAR",
		"componentType":5123,
		"count":17664,
		"byteOffset":0,
		"min":[0],
		"max":[3242]
	},
	{
		"bufferView":17,
		"type":"VEC3",
		"componentType":5126,
		"count":3243,
		"byteOffset":0,
		"min":[-24.734539031982423,
		-90.05110168457031,
		-24.063669204711915],
		"max":[24.734539031982423,
		0.7073097825050354,
		25.088359832763673]
	},
	{
		"bufferView":17,
		"type":"VEC3",
		"componentType":5126,
		"count":3243,
		"byteOffset":12,
		"min":[-1.0,
		-0.9999999403953552,
		-1.0],
		"max":[1.0,
		1.0,
		1.0]
	},
	{
		"bufferView":17,
		"type":"VEC2",
		"componentType":5126,
		"count":3243,
		"byteOffset":24,
		"min":[0.0,
		0.0],
		"max":[1.0,
		1.0]
	},
	{
		"bufferView":18,
		"type":"SCALAR",
		"componentType":5123,
		"count":11520,
		"byteOffset":0,
		"min":[0],
		"max":[2072]
	},
	{
		"bufferView":19,
		"type":"VEC3",
		"componentType":5126,
		"count":2073,
		"byteOffset":0,
		"min":[-45.26333999633789,
		-42.99790573120117,
		-26.301685333251954],
		"max":[7.340035438537598,
		11.536945343017579,
		26.301685333251954]
	},
	{
		"bufferView":19,
		"type":"VEC3",
		"componentType":5126,
		"count":2073,
		"byteOffset":12,
		"min":[-1.0,
		-1.0,
		-1.0],
		"max":[1.0,
		1.0,
		1.0]
	},
	{
		"bufferView":19,
		"type":"VEC2",
		"componentType":5126,
		"count":2073,
		"byteOffset":24,
		"min":[0.0,
		0.0390625],
		"max":[1.0,
		0.9609375]
	},
	{
		"bufferView":20,
		"type":"SCALAR",
		"componentType":5123,
		"count":17664,
		"byteOffset":0,
		"min":[0],
		"max":[3242]
	},
	{
		"bufferView":21,
		"type":"VEC3",
		"componentType":5126,
		"count":3243,
		"byteOffset":0,
		"min":[-24.734539031982423,
		-90.05110168457031,
		-24.063669204711915],
		"max":[24.734539031982423,
		0.7073097825050354,
		25.088359832763673]
	},
	{
		"bufferView":21,
		"type":"VEC3",
		"componentType":5126,
		"count":3243,
		"byteOffset":12,
		"min":[-1.0,
		-0.9999999403953552,
		-1.0],
		"max":[1.0,
		1.0,
		1.0]
	},
	{
		"bufferView":21,
		"type":"VEC2",
		"componentType":5126,
		"count":3243,
		"byteOffset":24,
		"min":[0.0,
		0.0],
		"max":[1.0,
		1.0]
	}],
	"bufferViews":[{
		"buffer":0,
		"byteOffset":0,
		"byteLength":30720,
		"target":34963
	},
	{
		"buffer":0,
		"byteOffset":30720,
		"byteLength":91200,
		"target":34962,
		"byteStride":32
	},
	{
		"buffer":1,
		"byteOffset":0,
		"byteLength":33792,
		"target":34963
	},
	{
		"buffer":1,
		"byteOffset":33792,
		"byteLength":95520,
		"target":34962,
		"byteStride":32
	},
	{
		"buffer":2,
		"byteOffset":0,
		"byteLength":43008,
		"target":34963
	},
	{
		"buffer":2,
		"byteOffset":43008,
		"byteLength":125440,
		"target":34962,
		"byteStride":32
	},
	{
		"buffer":3,
		"byteOffset":0,
		"byteLength":9216,
		"target":34963
	},
	{
		"buffer":3,
		"byteOffset":9216,
		"byteLength":29024,
		"target":34962,
		"byteStride":32
	},
	{
		"buffer":4,
		"byteOffset":0,
		"byteLength":31080,
		"target":34963
	},
	{
		"buffer":4,
		"byteOffset":31080,
		"byteLength":94400,
		"target":34962,
		"byteStride":32
	},
	{
		"buffer":5,
		"byteOffset":0,
		"byteLength":70656,
		"target":34963
	},
	{
		"buffer":5,
		"byteOffset":70656,
		"byteLength":199232,
		"target":34962,
		"byteStride":32
	},
	{
		"buffer":6,
		"byteOffset":0,
		"byteLength":1344,
		"target":34963
	},
	{
		"buffer":6,
		"byteOffset":1344,
		"byteLength":4832,
		"target":34962,
		"byteStride":32
	},
	{
		"buffer":7,
		"byteOffset":0,
		"byteLength":1344,
		"target":34963
	},
	{
		"buffer":7,
		"byteOffset":1344,
		"byteLength":4832,
		"target":34962,
		"byteStride":32
	},
	{
		"buffer":8,
		"byteOffset":0,
		"byteLength":35328,
		"target":34963
	},
	{
		"buffer":8,
		"byteOffset":35328,
		"byteLength":103776,
		"target":34962,
		"byteStride":32
	},
	{
		"buffer":9,
		"byteOffset":0,
		"byteLength":23040,
		"target":34963
	},
	{
		"buffer":9,
		"byteOffset":23040,
		"byteLength":66336,
		"target":34962,
		"byteStride":32
	},
	{
		"buffer":10,
		"byteOffset":0,
		"byteLength":35328,
		"target":34963
	},
	{
		"buffer":10,
		"byteOffset":35328,
		"byteLength":103776,
		"target":34962,
		"byteStride":32
	}],
	"buffers":[{
		"uri":"data:application/octet-stream;base64,",
		"byteLength":121920
	},
	{
		"uri":"data:application/octet-stream;base64,",
		"byteLength":129312
	},
	{
		"uri":"data:application/octet-stream;base64,",
		"byteLength":168448
	},
	{
		"uri":"data:application/octet-stream;base64,",
		"byteLength":38240
	},
	{
		"uri":"data:application/octet-stream;base64,",
		"byteLength":125480
	},
	{
		"uri":"data:application/octet-stream;base64,",
		"byteLength":269888
	},
	{
		"uri":"data:application/octet-stream;base64,",
		"byteLength":6176
	},
	{
		"uri":"data:application/octet-stream;base64,",
		"byteLength":6176
	},
	{
		"uri":"data:application/octet-stream;base64,",
		"byteLength":139104
	},
	{
		"uri":"data:application/octet-stream;base64,",
		"byteLength":89376
	},
	{
		"uri":"data:application/octet-stream;base64,",
		"byteLength":139104
	}],
	"materials":[{
		"doubleSided":true,
		"pbrMetallicRoughness":{
			"baseColorFactor":[0.09,
			0.09,
			0.09,
			1.0],
			"metallicFactor":1.0,
			"roughnessFactor":0.3
		},
		"emissiveFactor":[0.0,
		0.0,
		0.0],
		"alphaMode":"OPAQUE",
		"name":"PBR"
	},
	{
		"doubleSided":true,
		"pbrMetallicRoughness":{
			"baseColorFactor":[1.0,
			1.0,
			1.0,
			1.0],
			"metallicFactor":1.0,
			"roughnessFactor":0.3
		},
		"emissiveFactor":[0.0,
		0.0,
		0.0],
		"alphaMode":"OPAQUE",
		"name":"PBR.1"
	}]
}